<svg width="24" height="24" viewBox="0 0 24 24" fill="none" xmlns="http://www.w3.org/2000/svg">
<path d="M12.0007 7.22802C12.2845 7.22802 12.5566 7.11142 12.7573 6.90387C12.9579 6.69632 13.0706 6.41481 13.0706 6.12129C13.0706 5.82776 12.9579 5.54626 12.7573 5.33871C12.5566 5.13115 12.2845 5.01455 12.0007 5.01455C11.717 5.01455 11.4448 5.13115 11.2442 5.33871C11.0435 5.54626 10.9308 5.82776 10.9308 6.12129C10.9308 6.41481 11.0435 6.69632 11.2442 6.90387C11.4448 7.11142 11.717 7.22802 12.0007 7.22802ZM19.7026 17.1415V10.051H19.8207C20.967 10.051 21.4381 8.52663 20.5011 7.84015L12.9917 2.32705C12.7022 2.1143 12.3559 2 12.0007 2C11.6456 2 11.2993 2.1143 11.0097 2.32705L3.49782 7.84015C2.56332 8.52663 3.03185 10.0496 4.17815 10.0496H4.29882V17.1402C3.52734 17.6527 3.01517 18.5477 3.01517 19.5661V21.3361C3.01517 21.5122 3.08279 21.681 3.20315 21.8055C3.32352 21.9301 3.48677 22 3.65699 22H20.3444C20.5147 22 20.6779 21.9301 20.7983 21.8055C20.9186 21.681 20.9863 21.5122 20.9863 21.3361V19.5661C20.9863 18.5477 20.4754 17.6527 19.7026 17.1415ZM11.7517 3.41055C11.8239 3.35761 11.9103 3.32918 11.9988 3.32918C12.0873 3.32918 12.1737 3.35761 12.2459 3.41055L19.4844 8.72182H4.51447L11.753 3.41055H11.7517ZM18.4164 10.0496V16.6967C18.3455 16.6913 18.2744 16.6886 18.2033 16.6887H15.8491V10.051L18.4164 10.0496ZM5.58247 16.6967V10.051H8.14977V16.6901H5.79555C5.72367 16.6901 5.65178 16.6927 5.58118 16.698L5.58247 16.6967ZM5.79684 18.0165H18.2059C19.0326 18.0165 19.7026 18.7097 19.7026 19.5661V20.6722H4.29882V19.5661C4.29882 18.7097 4.97016 18.0165 5.79684 18.0165ZM11.3589 16.6887H9.43342V10.051H11.3589V16.6901V16.6887ZM12.6425 16.6887V10.051H14.568V16.6901H12.6425V16.6887Z" fill="#5A6F81"/>
</svg>
