<svg width="24" height="24" viewBox="0 0 24 24" fill="none" xmlns="http://www.w3.org/2000/svg">
<path d="M8.75001 17C8.5511 17 8.36033 17.079 8.21968 17.2197C8.07903 17.3603 8.00001 17.5511 8.00001 17.75C8.00001 17.9489 8.07903 18.1397 8.21968 18.2803C8.36033 18.421 8.5511 18.5 8.75001 18.5H14.75C14.9489 18.5 15.1397 18.421 15.2803 18.2803C15.421 18.1397 15.5 17.9489 15.5 17.75C15.5 17.5511 15.421 17.3603 15.2803 17.2197C15.1397 17.079 14.9489 17 14.75 17H8.75001Z" fill="#0B72EB"/>
<path fill-rule="evenodd" clip-rule="evenodd" d="M11.75 1C11.025 1 10.363 1.2 9.64001 1.537C8.93801 1.864 8.12801 2.347 7.11201 2.952L5.65601 3.819C4.53701 4.486 3.64601 5.017 2.97001 5.525C2.27301 6.05 1.75001 6.59 1.41001 7.301C1.06801 8.012 0.97601 8.757 1.00501 9.626C1.03401 10.467 1.18101 11.49 1.36501 12.772L1.65801 14.804C1.89501 16.454 2.08401 17.763 2.36501 18.782C2.65501 19.832 3.06701 20.667 3.81001 21.306C4.55201 21.946 5.44001 22.231 6.52601 22.368C7.58201 22.5 8.91301 22.5 10.592 22.5H12.908C14.588 22.5 15.918 22.5 16.974 22.368C18.06 22.231 18.948 21.946 19.69 21.307C20.433 20.667 20.845 19.833 21.135 18.782C21.416 17.762 21.605 16.454 21.842 14.804L22.134 12.772C22.319 11.49 22.466 10.467 22.494 9.626C22.524 8.756 22.432 8.012 22.091 7.301C21.75 6.59 21.227 6.05 20.53 5.525C19.855 5.017 18.963 4.486 17.844 3.819L16.388 2.952C15.372 2.347 14.562 1.864 13.861 1.537C13.137 1.199 12.475 1 11.75 1ZM7.84601 4.261C8.90301 3.631 9.64901 3.188 10.274 2.896C10.883 2.612 11.321 2.5 11.75 2.5C12.18 2.5 12.617 2.612 13.226 2.896C13.851 3.188 14.596 3.631 15.654 4.261L17.039 5.086C18.204 5.78 19.025 6.27 19.629 6.724C20.216 7.167 20.539 7.533 20.739 7.949C20.938 8.365 21.021 8.843 20.996 9.575C20.97 10.325 20.836 11.266 20.644 12.601L20.364 14.538C20.118 16.252 19.942 17.466 19.689 18.383C19.442 19.279 19.144 19.798 18.712 20.17C18.279 20.543 17.718 20.763 16.787 20.88C15.836 20.999 14.599 21 12.857 21H10.644C8.90101 21 7.66401 20.999 6.71301 20.88C5.78301 20.763 5.22101 20.543 4.78801 20.17C4.35601 19.798 4.05801 19.279 3.81101 18.383C3.55801 17.466 3.38101 16.252 3.13501 14.538L2.85601 12.601C2.66401 11.266 2.53001 10.324 2.50401 9.575C2.47901 8.843 2.56201 8.365 2.76201 7.949C2.96201 7.533 3.28301 7.167 3.87201 6.724C4.47501 6.27 5.29601 5.78 6.46101 5.086L7.84601 4.261Z" fill="#0B72EB"/>
</svg>
