<svg width="24" height="24" viewBox="0 0 24 24" fill="none" xmlns="http://www.w3.org/2000/svg">
<path fill-rule="evenodd" clip-rule="evenodd" d="M20.5 6.75C20.5 6.94891 20.421 7.13968 20.2803 7.28033C20.1397 7.42098 19.9489 7.5 19.75 7.5H3.75C3.55109 7.5 3.36032 7.42098 3.21967 7.28033C3.07902 7.13968 3 6.94891 3 6.75C3 6.55109 3.07902 6.36032 3.21967 6.21967C3.36032 6.07902 3.55109 6 3.75 6H19.75C19.9489 6 20.1397 6.07902 20.2803 6.21967C20.421 6.36032 20.5 6.55109 20.5 6.75ZM20.5 11.75C20.5 11.9489 20.421 12.1397 20.2803 12.2803C20.1397 12.421 19.9489 12.5 19.75 12.5H3.75C3.55109 12.5 3.36032 12.421 3.21967 12.2803C3.07902 12.1397 3 11.9489 3 11.75C3 11.5511 3.07902 11.3603 3.21967 11.2197C3.36032 11.079 3.55109 11 3.75 11H19.75C19.9489 11 20.1397 11.079 20.2803 11.2197C20.421 11.3603 20.5 11.5511 20.5 11.75ZM20.5 16.75C20.5 16.9489 20.421 17.1397 20.2803 17.2803C20.1397 17.421 19.9489 17.5 19.75 17.5H3.75C3.55109 17.5 3.36032 17.421 3.21967 17.2803C3.07902 17.1397 3 16.9489 3 16.75C3 16.5511 3.07902 16.3603 3.21967 16.2197C3.36032 16.079 3.55109 16 3.75 16H19.75C19.9489 16 20.1397 16.079 20.2803 16.2197C20.421 16.3603 20.5 16.5511 20.5 16.75Z" fill="#5A6F81"/>
</svg>
