<svg width="24" height="24" viewBox="0 0 24 24" fill="none" xmlns="http://www.w3.org/2000/svg">
<path d="M4.88 5.045C4.75 5.227 4.75 5.485 4.75 6C4.75 6.515 4.75 6.773 4.88 6.955C4.92529 7.0192 4.98107 7.07532 5.045 7.121C5.227 7.25 5.485 7.25 6 7.25C6.515 7.25 6.773 7.25 6.955 7.12C7.0192 7.07471 7.07532 7.01893 7.121 6.955C7.25 6.773 7.25 6.515 7.25 6C7.25 5.485 7.25 5.227 7.12 5.045C7.07471 4.9808 7.01893 4.92468 6.955 4.879C6.773 4.75 6.515 4.75 6 4.75C5.485 4.75 5.227 4.75 5.045 4.88C4.9808 4.92529 4.92568 4.98107 4.88 5.045Z" fill="#5A6F81"/>
<path fill-rule="evenodd" clip-rule="evenodd" d="M8.454 1.04C8.897 1.082 9.309 1.174 9.687 1.405C10.057 1.632 10.368 1.943 10.595 2.313C10.826 2.691 10.918 3.103 10.96 3.546C11 3.969 11 4.49 11 5.114V6.302C11 7.2 11 7.95 10.92 8.544C10.836 9.172 10.65 9.739 10.194 10.194C9.739 10.65 9.172 10.836 8.544 10.92C7.95 11 7.2 11 6.302 11H5.114C4.49 11 3.969 11 3.546 10.96C3.103 10.918 2.691 10.826 2.313 10.595C1.94292 10.3682 1.63177 10.0571 1.405 9.687C1.174 9.309 1.082 8.897 1.04 8.454C1 8.031 1 7.51 1 6.886V6.812C1 5.862 1 5.096 1.059 4.479C1.119 3.843 1.247 3.289 1.553 2.791C1.86192 2.28655 2.2858 1.86233 2.79 1.553C3.288 1.247 3.842 1.119 4.478 1.059C5.095 1 5.861 1 6.811 1H6.885C7.509 1 8.03 1 8.453 1.04H8.454ZM8.312 2.533C7.968 2.501 7.52 2.5 6.85 2.5C5.853 2.5 5.159 2.5 4.621 2.552C4.095 2.602 3.797 2.695 3.574 2.832C3.27164 3.0174 3.0174 3.27164 2.832 3.574C2.695 3.797 2.602 4.095 2.552 4.621C2.5 5.16 2.5 5.853 2.5 6.85C2.5 7.52 2.5 7.968 2.533 8.312C2.565 8.645 2.621 8.8 2.684 8.903C2.787 9.071 2.929 9.213 3.097 9.316C3.2 9.379 3.355 9.435 3.687 9.466C4.032 9.499 4.481 9.5 5.15 9.5H6.25C7.214 9.5 7.862 9.498 8.345 9.433C8.806 9.371 9.004 9.264 9.134 9.133C9.264 9.003 9.371 8.806 9.434 8.345C9.498 7.862 9.5 7.214 9.5 6.25V5.15C9.5 4.48 9.5 4.032 9.467 3.688C9.435 3.355 9.379 3.2 9.316 3.097C9.21288 2.92865 9.07135 2.78712 8.903 2.684C8.8 2.621 8.645 2.565 8.313 2.534L8.312 2.533Z" fill="#5A6F81"/>
<path d="M16.38 5.045C16.25 5.227 16.25 5.485 16.25 6C16.25 6.515 16.25 6.773 16.38 6.955C16.4253 7.0192 16.4811 7.07532 16.545 7.121C16.727 7.25 16.985 7.25 17.5 7.25C18.015 7.25 18.273 7.25 18.455 7.12C18.5192 7.07471 18.5753 7.01893 18.621 6.955C18.75 6.773 18.75 6.515 18.75 6C18.75 5.485 18.75 5.227 18.62 5.045C18.5747 4.98081 18.5189 4.9247 18.455 4.879C18.273 4.75 18.015 4.75 17.5 4.75C16.985 4.75 16.727 4.75 16.545 4.88C16.4808 4.92531 16.4257 4.98109 16.38 5.045Z" fill="#5A6F81"/>
<path fill-rule="evenodd" clip-rule="evenodd" d="M16.614 1H16.688C17.638 1 18.404 1 19.021 1.059C19.657 1.119 20.211 1.247 20.709 1.553C21.214 1.862 21.639 2.286 21.947 2.791C22.253 3.289 22.381 3.843 22.441 4.479C22.5 5.096 22.5 5.862 22.5 6.812V6.886C22.5 7.51 22.5 8.031 22.46 8.454C22.418 8.897 22.326 9.309 22.095 9.687C21.868 10.057 21.557 10.368 21.187 10.595C20.809 10.826 20.397 10.918 19.954 10.96C19.531 11 19.01 11 18.386 11H17.198C16.299 11 15.55 11 14.956 10.92C14.328 10.836 13.761 10.65 13.306 10.194C12.85 9.739 12.664 9.172 12.58 8.544C12.5 7.95 12.5 7.2 12.5 6.302V5.114C12.5 4.49 12.5 3.969 12.54 3.546C12.582 3.103 12.674 2.691 12.905 2.313C13.1318 1.94292 13.4429 1.63177 13.813 1.405C14.191 1.174 14.603 1.082 15.046 1.04C15.469 1 15.99 1 16.614 1ZM15.188 2.533C14.855 2.565 14.7 2.621 14.597 2.684C14.4287 2.78712 14.2871 2.92865 14.184 3.097C14.121 3.2 14.065 3.355 14.034 3.687C14.001 4.032 14 4.481 14 5.15V6.25C14 7.214 14.002 7.862 14.066 8.345C14.129 8.806 14.236 9.004 14.366 9.134C14.496 9.264 14.694 9.371 15.156 9.434C15.638 9.498 16.286 9.5 17.25 9.5H18.35C19.02 9.5 19.468 9.5 19.812 9.467C20.145 9.435 20.3 9.379 20.403 9.316C20.5713 9.21288 20.7129 9.07135 20.816 8.903C20.879 8.8 20.935 8.645 20.966 8.313C20.999 7.968 21 7.519 21 6.85C21 5.853 21 5.159 20.948 4.621C20.898 4.095 20.805 3.797 20.668 3.574C20.4826 3.27164 20.2284 3.0174 19.926 2.832C19.703 2.695 19.405 2.602 18.879 2.552C18.341 2.501 17.647 2.5 16.65 2.5C15.98 2.5 15.532 2.5 15.188 2.533Z" fill="#5A6F81"/>
<path d="M4.75 17.5C4.75 16.985 4.75 16.727 4.88 16.545C4.92531 16.4808 4.98109 16.4247 5.045 16.379C5.227 16.25 5.485 16.25 6 16.25C6.515 16.25 6.773 16.25 6.955 16.38C7.0192 16.4253 7.07532 16.4811 7.121 16.545C7.25 16.727 7.25 16.985 7.25 17.5C7.25 18.015 7.25 18.273 7.12 18.455C7.07471 18.5192 7.01893 18.5753 6.955 18.621C6.773 18.75 6.515 18.75 6 18.75C5.485 18.75 5.227 18.75 5.045 18.62C4.98081 18.5747 4.9247 18.5189 4.879 18.455C4.75 18.273 4.75 18.015 4.75 17.5Z" fill="#5A6F81"/>
<path fill-rule="evenodd" clip-rule="evenodd" d="M8.544 12.58C9.172 12.664 9.739 12.85 10.194 13.306C10.65 13.761 10.836 14.328 10.92 14.956C11 15.55 11 16.299 11 17.198V18.386C11 19.01 11 19.531 10.96 19.954C10.918 20.396 10.826 20.809 10.595 21.187C10.368 21.557 10.057 21.868 9.687 22.095C9.309 22.327 8.897 22.418 8.454 22.46C8.031 22.5 7.51 22.5 6.886 22.5H6.812C5.862 22.5 5.096 22.5 4.479 22.441C3.843 22.381 3.289 22.253 2.791 21.947C2.28643 21.6378 1.8622 21.2136 1.553 20.709C1.247 20.211 1.119 19.657 1.059 19.021C1 18.404 1 17.638 1 16.688V16.614C1 15.99 1 15.469 1.04 15.046C1.082 14.604 1.174 14.191 1.405 13.813C1.63177 13.4429 1.94292 13.1318 2.313 12.905C2.691 12.674 3.103 12.582 3.546 12.54C3.969 12.5 4.49 12.5 5.114 12.5H6.302C7.2 12.5 7.95 12.5 8.544 12.58ZM8.344 14.066C7.862 14.002 7.214 14 6.25 14H5.15C4.48 14 4.032 14 3.688 14.034C3.355 14.065 3.2 14.121 3.097 14.184C2.92865 14.2871 2.78712 14.4287 2.684 14.597C2.621 14.7 2.565 14.855 2.534 15.187C2.501 15.532 2.5 15.981 2.5 16.65C2.5 17.647 2.5 18.341 2.552 18.879C2.602 19.405 2.695 19.703 2.832 19.926C3.017 20.228 3.272 20.483 3.574 20.668C3.797 20.805 4.095 20.898 4.621 20.948C5.159 20.999 5.853 21 6.85 21C7.52 21 7.968 21 8.312 20.966C8.645 20.935 8.8 20.879 8.903 20.816C9.07135 20.7129 9.21288 20.5713 9.316 20.403C9.379 20.3 9.435 20.145 9.466 19.813C9.499 19.468 9.5 19.019 9.5 18.35V17.25C9.5 16.286 9.498 15.638 9.433 15.155C9.371 14.694 9.264 14.496 9.133 14.366C9.003 14.236 8.806 14.129 8.345 14.066H8.344Z" fill="#5A6F81"/>
<path d="M16.712 12.5H18.75V14H16.75C16.032 14 15.55 14 15.183 14.038C14.828 14.074 14.664 14.138 14.556 14.211C14.4195 14.3023 14.3023 14.4195 14.211 14.556C14.138 14.664 14.074 14.828 14.038 15.183C14.001 15.55 14 16.033 14 16.75H12.5V16.712C12.5 16.042 12.5 15.483 12.546 15.031C12.594 14.557 12.699 14.118 12.964 13.722C13.164 13.422 13.422 13.164 13.722 12.964C14.118 12.699 14.557 12.594 15.031 12.546C15.483 12.5 16.043 12.5 16.712 12.5ZM12.5 21.75V18.75H14V21.75C14 21.9489 13.921 22.1397 13.7803 22.2803C13.6397 22.421 13.4489 22.5 13.25 22.5C13.0511 22.5 12.8603 22.421 12.7197 22.2803C12.579 22.1397 12.5 21.9489 12.5 21.75ZM22.5 13.25C22.5 13.0511 22.421 12.8603 22.2803 12.7197C22.1397 12.579 21.9489 12.5 21.75 12.5C21.5511 12.5 21.3603 12.579 21.2197 12.7197C21.079 12.8603 21 13.0511 21 13.25V16.75H22.5V13.25ZM21 18.75C21 19.226 21 19.546 20.983 19.793C20.966 20.034 20.937 20.151 20.905 20.228C20.8422 20.3798 20.7501 20.5177 20.6339 20.6339C20.5177 20.7501 20.3798 20.8422 20.228 20.905C20.151 20.937 20.034 20.966 19.793 20.983C19.546 21 19.226 21 18.75 21H16.75V22.5H18.775C19.22 22.5 19.591 22.5 19.895 22.48C20.212 22.458 20.512 22.411 20.802 22.29C21.1357 22.1519 21.439 21.9494 21.6945 21.6941C21.95 21.4388 22.1527 21.1357 22.291 20.802C22.411 20.512 22.458 20.212 22.479 19.895C22.5 19.591 22.5 19.22 22.5 18.775V18.75H21ZM15.919 16.194C15.75 16.447 15.75 16.798 15.75 17.5C15.75 18.202 15.75 18.553 15.919 18.806C15.9918 18.9148 16.0852 19.0082 16.194 19.081C16.447 19.25 16.798 19.25 17.5 19.25C18.202 19.25 18.553 19.25 18.806 19.081C18.9148 19.0082 19.0082 18.9148 19.081 18.806C19.25 18.553 19.25 18.202 19.25 17.5C19.25 16.798 19.25 16.447 19.081 16.194C19.0082 16.0852 18.9148 15.9918 18.806 15.919C18.553 15.75 18.202 15.75 17.5 15.75C16.798 15.75 16.447 15.75 16.194 15.919C16.0852 15.9918 15.9918 16.0852 15.919 16.194Z" fill="#5A6F81"/>
</svg>
